<svg style="display: none;" xmlns="http://www.w3.org/2000/svg" xmlns:xlink="http://www.w3.org/1999/xlink"><symbol id="nc-icon-zoom-2-outline-24" viewBox="0 0 24 24"><title>zoom 2</title><g><line data-color="color-2" stroke-linecap="round" stroke-miterlimit="10" x1="22" y1="22" x2="16.4" y2="16.4" stroke-linejoin="round"/><circle fill="none" stroke="currentColor" stroke-linecap="round" stroke-miterlimit="10" cx="10" cy="10" r="9" stroke-linejoin="round"/></g></symbol><symbol id="nc-icon-world-outline-24" viewBox="0 0 24 24"><title>world</title><g><path data-cap="butt" data-color="color-2" stroke-miterlimit="10" d="M5.704,2.979 c0.694,0.513,1.257,1.164,1.767,2.02C7.917,5.746,8.908,7.826,8,9c-1.027,1.328-4,1.776-4,3c0,0.921,1.304,1.972,2,3 c1.047,1.546,0.571,3.044,0,4c-0.296,0.496-0.769,0.92-1.293,1.234" stroke-linejoin="round" stroke-linecap="round"/><path data-cap="butt" data-color="color-2" stroke-miterlimit="10" d="M20.668,5.227 C18.509,6.262,15.542,6.961,15,7c-1.045,0.075-1.2-0.784-2-2c-0.6-0.912-2-2.053-2-3c0-0.371,0.036-0.672,0.131-0.966" stroke-linejoin="round" stroke-linecap="round"/><circle fill="none" stroke="currentColor" stroke-linecap="round" stroke-miterlimit="10" cx="12" cy="12" r="11" stroke-linejoin="round"/><path data-cap="butt" data-color="color-2" stroke-miterlimit="10" d="M19.014,12.903 C19.056,15.987,15.042,19.833,13,19c-1.79-0.73-0.527-2.138-0.986-6.097c-0.191-1.646,1.567-3,3.5-3S18.992,11.247,19.014,12.903z" stroke-linejoin="round" stroke-linecap="round"/></g></symbol><symbol id="nc-icon-widget-outline-24" viewBox="0 0 24 24"><title>widget</title><g><line data-color="color-2" stroke-linecap="round" stroke-miterlimit="10" x1="5" y1="6" x2="6" y2="6" stroke-linejoin="round"/><line data-color="color-2" stroke-linecap="round" stroke-miterlimit="10" x1="10" y1="6" x2="11" y2="6" stroke-linejoin="round"/><line data-color="color-2" stroke-linecap="round" stroke-miterlimit="10" x1="15" y1="6" x2="19" y2="6" stroke-linejoin="round"/><line fill="none" stroke="currentColor" stroke-linecap="round" stroke-miterlimit="10" x1="1" y1="10" x2="23" y2="10" stroke-linejoin="round"/><rect x="1" y="2" fill="none" stroke="currentColor" stroke-linecap="round" stroke-miterlimit="10" width="22" height="20" stroke-linejoin="round"/></g></symbol><symbol id="nc-icon-wallet-43-outline-24" viewBox="0 0 24 24"><title>wallet 43</title><g><path fill="none" stroke="currentColor" stroke-linecap="round" stroke-miterlimit="10" d="M21,12V5H3 C1.895,5,1,4.105,1,3v17c0,1.657,1.343,3,3,3h17v-7" stroke-linejoin="round"/><path fill="none" stroke="currentColor" stroke-linecap="round" stroke-miterlimit="10" d="M17,2V1H3 C1.895,1,1,1.895,1,3v0c0,1.105,0.895,2,2,2" stroke-linejoin="round"/><path data-color="color-2" stroke-linecap="round" stroke-miterlimit="10" d="M23,16h-5 c-1.105,0-2-0.895-2-2l0,0c0-1.105,0.895-2,2-2h5V16z" stroke-linejoin="round"/></g></symbol><symbol id="nc-icon-video-66-outline-24" viewBox="0 0 24 24"><title>video 66</title><g><polygon data-color="color-2" stroke-linecap="round" stroke-miterlimit="10" points=" 23,21 16,18 16,14 23,11 " stroke-linejoin="round"/><rect x="1" y="10" fill="none" stroke="currentColor" stroke-linecap="round" stroke-miterlimit="10" width="15" height="12" stroke-linejoin="round"/><circle data-color="color-2" stroke-linecap="round" stroke-miterlimit="10" cx="4" cy="4" r="3" stroke-linejoin="round"/><circle data-color="color-2" stroke-linecap="round" stroke-miterlimit="10" cx="12" cy="5" r="2" stroke-linejoin="round"/></g></symbol><symbol id="nc-icon-vector-outline-24" viewBox="0 0 24 24"><title>vector</title><g><line data-color="color-2" stroke-linecap="round" stroke-miterlimit="10" x1="5" y1="6" x2="10" y2="6" stroke-linejoin="round"/><line data-color="color-2" stroke-linecap="round" stroke-miterlimit="10" x1="14" y1="6" x2="19" y2="6" stroke-linejoin="round"/><path data-cap="butt" data-color="color-2" stroke-miterlimit="10" d="M14,7.2c4,0.9,7,4.5,7,8.8" stroke-linejoin="round" stroke-linecap="round"/><path data-cap="butt" data-color="color-2" stroke-miterlimit="10" d="M3,16c0-4.3,3-7.9,7-8.8" stroke-linejoin="round" stroke-linecap="round"/><circle fill="none" stroke="currentColor" stroke-linecap="round" stroke-miterlimit="10" cx="3" cy="6" r="2" stroke-linejoin="round"/><circle fill="none" stroke="currentColor" stroke-linecap="round" stroke-miterlimit="10" cx="21" cy="6" r="2" stroke-linejoin="round"/><rect x="10" y="4" fill="none" stroke="currentColor" stroke-linecap="round" stroke-miterlimit="10" width="4" height="4" stroke-linejoin="round"/><rect x="1" y="16" fill="none" stroke="currentColor" stroke-linecap="round" stroke-miterlimit="10" width="4" height="4" stroke-linejoin="round"/><rect x="19" y="16" fill="none" stroke="currentColor" stroke-linecap="round" stroke-miterlimit="10" width="4" height="4" stroke-linejoin="round"/></g></symbol><symbol id="nc-icon-turtle-outline-24" viewBox="0 0 24 24"><title>turtle</title><g><path data-cap="butt" data-color="color-2" stroke-miterlimit="10" d="M8.51776,7H1 c0,2.20911,1.79083,4,4,4h0.40686" stroke-linejoin="round" stroke-linecap="round"/><path data-cap="butt" data-color="color-2" stroke-miterlimit="10" d="M15.48224,7H23 c0,2.20911-1.79083,4-4,4h-0.40686" stroke-linejoin="round" stroke-linecap="round"/><path data-cap="butt" data-color="color-2" stroke-miterlimit="10" d="M5.43158,16.3205 C4.00232,16.93054,3,18.34778,3,20c0,0.48962,0.1004,0.95294,0.26141,1.38654c1.50421-1.05841,3.98669-1.31641,3.98669-1.31641" stroke-linejoin="round" stroke-linecap="round"/><path data-cap="butt" data-color="color-2" stroke-miterlimit="10" d="M18.56842,16.3205 C19.99768,16.93054,21,18.34778,21,20c0,0.48962-0.1004,0.95294-0.26141,1.38654c-1.50421-1.05841-3.98669-1.31641-3.98669-1.31641" stroke-linejoin="round" stroke-linecap="round"/><path data-cap="butt" data-color="color-2" stroke-miterlimit="10" d="M9,6.72193V4 c0-1.65685,1.34314-3,3-3H12c1.65685,0,3,1.34314,3,3v2.7024" stroke-linejoin="round" stroke-linecap="round"/><path fill="none" stroke="currentColor" stroke-linecap="round" stroke-miterlimit="10" d="M5,13.5 C5,9.35786,8.13401,6,12,6s7,3.35786,7,7.5S15.86599,23,12,23S5,17.64214,5,13.5z" stroke-linejoin="round"/></g></symbol><symbol id="nc-icon-trash-simple-outline-24" viewBox="0 0 24 24"><title>trash simple</title><g><polyline fill="none" stroke="currentColor" stroke-linecap="round" stroke-miterlimit="10" points="20,9 20,23 4,23 4,9 " stroke-linejoin="round"/><line fill="none" stroke="currentColor" stroke-linecap="round" stroke-miterlimit="10" x1="1" y1="5" x2="23" y2="5" stroke-linejoin="round"/><line data-color="color-2" stroke-linecap="round" stroke-miterlimit="10" x1="12" y1="12" x2="12" y2="18" stroke-linejoin="round"/><line data-color="color-2" stroke-linecap="round" stroke-miterlimit="10" x1="8" y1="12" x2="8" y2="18" stroke-linejoin="round"/><line data-color="color-2" stroke-linecap="round" stroke-miterlimit="10" x1="16" y1="12" x2="16" y2="18" stroke-linejoin="round"/><polyline fill="none" stroke="currentColor" stroke-linecap="round" stroke-miterlimit="10" points="8,5 8,1 16,1 16,5 " stroke-linejoin="round"/></g></symbol><symbol id="nc-icon-support-16-outline-24" viewBox="0 0 24 24"><title>support 16</title><g><path data-cap="butt" fill="none" stroke="currentColor" stroke-miterlimit="10" d="M2.2,10 C2.995,6.082,6.082,2.995,10,2.2" stroke-linejoin="round" stroke-linecap="round"/><path data-cap="butt" fill="none" stroke="currentColor" stroke-miterlimit="10" d="M10,21.8 c-3.918-0.795-7.004-3.882-7.8-7.8" stroke-linejoin="round" stroke-linecap="round"/><path data-cap="butt" fill="none" stroke="currentColor" stroke-miterlimit="10" d="M21.8,14 c-0.795,3.918-3.882,7.004-7.8,7.8" stroke-linejoin="round" stroke-linecap="round"/><path data-cap="butt" fill="none" stroke="currentColor" stroke-miterlimit="10" d="M14,2.2 c3.918,0.795,7.004,3.882,7.8,7.8" stroke-linejoin="round" stroke-linecap="round"/><polyline data-cap="butt" data-color="color-2" stroke-miterlimit="10" points="10,7.416 10,1 14,1 14,7.416 " stroke-linejoin="round" stroke-linecap="round"/><polyline data-cap="butt" data-color="color-2" stroke-miterlimit="10" points="16.584,10 23,10 23,14 16.584,14 " stroke-linejoin="round" stroke-linecap="round"/><polyline data-cap="butt" data-color="color-2" stroke-miterlimit="10" points="14,16.584 14,23 10,23 10,16.584 " stroke-linejoin="round" stroke-linecap="round"/><polyline data-cap="butt" data-color="color-2" stroke-miterlimit="10" points="7.416,14 1,14 1,10 7.416,10 " stroke-linejoin="round" stroke-linecap="round"/><circle fill="none" stroke="currentColor" stroke-linecap="round" stroke-miterlimit="10" cx="12" cy="12" r="5" stroke-linejoin="round"/></g></symbol><symbol id="nc-icon-square-upload-outline-24" viewBox="0 0 24 24"><title>square upload</title><g><polyline data-color="color-2" stroke-linecap="round" stroke-miterlimit="10" points=" 2,16 2,22 22,22 22,16 " stroke-linejoin="round"/><line data-cap="butt" fill="none" stroke="currentColor" stroke-miterlimit="10" x1="12" y1="17" x2="12" y2="2" stroke-linejoin="round" stroke-linecap="round"/><polyline fill="none" stroke="currentColor" stroke-linecap="round" stroke-miterlimit="10" points="18,8 12,2 6,8 " stroke-linejoin="round"/></g></symbol><symbol id="nc-icon-square-download-outline-24" viewBox="0 0 24 24"><title>square download</title><g><polyline data-color="color-2" stroke-linecap="round" stroke-miterlimit="10" points=" 2,16 2,22 22,22 22,16 " stroke-linejoin="round"/><line data-cap="butt" fill="none" stroke="currentColor" stroke-miterlimit="10" x1="12" y1="1" x2="12" y2="16" stroke-linejoin="round" stroke-linecap="round"/><polyline fill="none" stroke="currentColor" stroke-linecap="round" stroke-miterlimit="10" points="6,10 12,16 18,10 " stroke-linejoin="round"/></g></symbol><symbol id="nc-icon-spaceship-outline-24" viewBox="0 0 24 24"><title>spaceship</title><g><line data-cap="butt" fill="none" stroke="currentColor" stroke-miterlimit="10" x1="14.935" y1="3.093" x2="20.882" y2="9.04" stroke-linejoin="round" stroke-linecap="round"/><path data-cap="butt" fill="none" stroke="currentColor" stroke-miterlimit="10" d="M12.603,4.387 C9.682,3.129,6.164,3.693,3.779,6.079c-0.489,0.489-0.893,1.03-1.229,1.6l3.428,3.428" stroke-linejoin="round" stroke-linecap="round"/><path data-cap="butt" fill="none" stroke="currentColor" stroke-miterlimit="10" d="M19.597,11.345 c1.29,2.932,0.725,6.475-1.676,8.876c-0.489,0.489-1.03,0.893-1.6,1.229l-3.442-3.442" stroke-linejoin="round" stroke-linecap="round"/><path fill="none" stroke="currentColor" stroke-linecap="round" stroke-miterlimit="10" d="M10.143,19.514 l-5.657-5.657c0,0,4.832-12.021,18.385-12.728C22.104,14.623,10.143,19.514,10.143,19.514z" stroke-linejoin="round"/><ellipse data-color="color-2" data-stroke="none" transform="matrix(0.7071 -0.7071 0.7071 0.7071 -2.9706 12.8284)" cx="14" cy="10" rx="2" ry="2" stroke-linejoin="round" stroke-linecap="round" fill="currentColor" stroke="none"/><path data-color="color-2" data-stroke="none" d="M1.113,18.844c1.111-1.111,2.911-1.111,4.022,0c1.111,1.111,1.111,2.911,0,4.022 S0,24,0,24S0.002,19.954,1.113,18.844z" stroke-linejoin="round" stroke-linecap="round" fill="currentColor" stroke="none"/></g></symbol><symbol id="nc-icon-skull-2-outline-24" viewBox="0 0 24 24"><title>skull 2</title><g><path fill="none" stroke="currentColor" stroke-linecap="round" stroke-miterlimit="10" d="M22,11 c0-5.523-4.477-10-10-10S2,5.477,2,11c0,3.699,2.014,6.921,5,8.651V23h10v-3.349C19.986,17.921,22,14.699,22,11z" stroke-linejoin="round"/><circle data-color="color-2" stroke-linecap="round" stroke-miterlimit="10" cx="7.5" cy="11.5" r="2.5" stroke-linejoin="round"/><circle data-color="color-2" stroke-linecap="round" stroke-miterlimit="10" cx="16.5" cy="11.5" r="2.5" stroke-linejoin="round"/><polygon data-color="color-2" data-stroke="none" points="12,15 10,18 14,18 " stroke-linejoin="round" stroke-linecap="round" fill="currentColor" stroke="none"/></g></symbol><symbol id="nc-icon-single-folded-content-outline-24" viewBox="0 0 24 24"><title>single folded content</title><g><polygon data-stroke="none" fill="currentColor" points="16,1 16,7 22,7 " stroke-linejoin="round" stroke-linecap="round" stroke="none"/><polyline data-cap="butt" fill="none" stroke="currentColor" stroke-miterlimit="10" points="16,1 16,7 22,7 " stroke-linejoin="round" stroke-linecap="round"/><polygon fill="none" stroke="currentColor" stroke-linecap="round" stroke-miterlimit="10" points="16,1 2,1 2,23 22,23 22,7 " stroke-linejoin="round"/><line data-color="color-2" stroke-linecap="round" stroke-miterlimit="10" x1="7" y1="7" x2="11" y2="7" stroke-linejoin="round"/><line data-color="color-2" stroke-linecap="round" stroke-miterlimit="10" x1="7" y1="12" x2="17" y2="12" stroke-linejoin="round"/><line data-color="color-2" stroke-linecap="round" stroke-miterlimit="10" x1="7" y1="17" x2="17" y2="17" stroke-linejoin="round"/></g></symbol><symbol id="nc-icon-single-01-outline-24" viewBox="0 0 24 24"><title>single 01</title><g><path fill="none" stroke="currentColor" stroke-linecap="round" stroke-miterlimit="10" d="M12,12L12,12 c-2.761,0-5-2.239-5-5V6c0-2.761,2.239-5,5-5h0c2.761,0,5,2.239,5,5v1C17,9.761,14.761,12,12,12z" stroke-linejoin="round"/><path data-color="color-2" stroke-linecap="round" stroke-miterlimit="10" d="M22,20.908 c0-1.8-1.197-3.383-2.934-3.856C17.172,16.535,14.586,16,12,16s-5.172,0.535-7.066,1.052C3.197,17.525,2,19.108,2,20.908V23h20 V20.908z" stroke-linejoin="round"/></g></symbol><symbol id="nc-icon-settings-gear-63-outline-24" viewBox="0 0 24 24"><title>settings gear 63</title><g><path fill="none" stroke="currentColor" stroke-linecap="round" stroke-miterlimit="10" d="M23,14v-4h-3.262 c-0.189-0.732-0.477-1.422-0.852-2.058l2.306-2.306l-2.828-2.828l-2.306,2.306C15.422,4.739,14.732,4.451,14,4.262V1h-4v3.262 C9.268,4.451,8.578,4.739,7.942,5.114L5.636,2.808L2.808,5.636l2.306,2.306C4.739,8.578,4.451,9.268,4.262,10H1v4h3.262 c0.189,0.732,0.477,1.422,0.852,2.058l-2.306,2.306l2.828,2.828l2.306-2.306c0.635,0.375,1.326,0.663,2.058,0.852V23h4v-3.262 c0.732-0.189,1.422-0.477,2.058-0.852l2.306,2.306l2.828-2.828l-2.306-2.306c0.375-0.635,0.663-1.326,0.852-2.058H23z" stroke-linejoin="round"/><circle data-color="color-2" stroke-linecap="round" stroke-miterlimit="10" cx="12" cy="12" r="3" stroke-linejoin="round"/></g></symbol><symbol id="nc-icon-send-2-outline-24" viewBox="0 0 24 24"><title>send 2</title><g><line data-cap="butt" data-color="color-2" stroke-miterlimit="10" x1="22" y1="2" x2="11" y2="13" stroke-linejoin="round" stroke-linecap="round"/><polygon fill="none" stroke="currentColor" stroke-linecap="round" stroke-miterlimit="10" points="22,2 15,21 11,13 3,9 " stroke-linejoin="round"/></g></symbol><symbol id="nc-icon-preferences-outline-24" viewBox="0 0 24 24"><title>preferences</title><g><line fill="none" stroke="currentColor" stroke-linecap="round" stroke-miterlimit="10" x1="12" y1="4" x2="23" y2="4" stroke-linejoin="round"/><line fill="none" stroke="currentColor" stroke-linecap="round" stroke-miterlimit="10" x1="1" y1="4" x2="4" y2="4" stroke-linejoin="round"/><rect x="4" y="1" fill="none" stroke="currentColor" stroke-linecap="round" stroke-miterlimit="10" width="4" height="6" stroke-linejoin="round"/><line data-color="color-2" stroke-linecap="round" stroke-miterlimit="10" x1="22" y1="12" x2="23" y2="12" stroke-linejoin="round"/><line data-color="color-2" stroke-linecap="round" stroke-miterlimit="10" x1="1" y1="12" x2="14" y2="12" stroke-linejoin="round"/><rect data-color="color-2" x="14" y="9" stroke-linecap="round" stroke-miterlimit="10" width="4" height="6" stroke-linejoin="round"/><line fill="none" stroke="currentColor" stroke-linecap="round" stroke-miterlimit="10" x1="12" y1="20" x2="23" y2="20" stroke-linejoin="round"/><line fill="none" stroke="currentColor" stroke-linecap="round" stroke-miterlimit="10" x1="1" y1="20" x2="4" y2="20" stroke-linejoin="round"/><rect x="4" y="17" fill="none" stroke="currentColor" stroke-linecap="round" stroke-miterlimit="10" width="4" height="6" stroke-linejoin="round"/></g></symbol><symbol id="nc-icon-phone-2-outline-24" viewBox="0 0 24 24"><title>phone 2</title><g><path fill="none" stroke="currentColor" stroke-linecap="round" stroke-miterlimit="10" d="M17,15l-3,3l-8-8l3-3L4,2 L1,5c0,9.941,8.059,18,18,18l3-3L17,15z" stroke-linejoin="round"/></g></symbol><symbol id="nc-icon-pencil-outline-24" viewBox="0 0 24 24"><title>pencil</title><g><line data-cap="butt" data-color="color-2" stroke-miterlimit="10" x1="14.5" y1="4.5" x2="19.5" y2="9.5" stroke-linejoin="round" stroke-linecap="round"/><line data-cap="butt" data-color="color-2" stroke-miterlimit="10" x1="3" y1="16" x2="8" y2="21" stroke-linejoin="round" stroke-linecap="round"/><path fill="none" stroke="currentColor" stroke-linecap="round" stroke-miterlimit="10" d="M8,21l-6,1l1-6 L16.586,2.414c0.781-0.781,2.047-0.781,2.828,0l2.172,2.172c0.781,0.781,0.781,2.047,0,2.828L8,21z" stroke-linejoin="round"/></g></symbol><symbol id="nc-icon-notes-outline-24" viewBox="0 0 24 24"><title>notes</title><g><polyline fill="none" stroke="currentColor" stroke-linecap="round" stroke-miterlimit="10" points="20,4 22,4 22,23 2,23 2,4 4,4 " stroke-linejoin="round"/><path fill="none" stroke="currentColor" stroke-linecap="round" stroke-miterlimit="10" d="M14,3c0-1.105-0.895-2-2-2 s-2,0.895-2,2H7v4h10V3H14z" stroke-linejoin="round"/><line data-color="color-2" stroke-linecap="round" stroke-miterlimit="10" x1="7" y1="11" x2="17" y2="11" stroke-linejoin="round"/><line data-color="color-2" stroke-linecap="round" stroke-miterlimit="10" x1="7" y1="15" x2="17" y2="15" stroke-linejoin="round"/><line data-color="color-2" stroke-linecap="round" stroke-miterlimit="10" x1="7" y1="19" x2="11" y2="19" stroke-linejoin="round"/></g></symbol><symbol id="nc-icon-multiple-11-outline-24" viewBox="0 0 24 24"><title>multiple 11</title><g><path data-color="color-2" stroke-linecap="round" stroke-miterlimit="10" d="M4,7L4,7 C2.895,7,2,6.105,2,5v0c0-1.105,0.895-2,2-2h0c1.105,0,2,0.895,2,2v0C6,6.105,5.105,7,4,7z" stroke-linejoin="round"/><path data-color="color-2" stroke-linecap="round" stroke-miterlimit="10" d="M6,21H3v-4 l-2,0v-5c0-1.105,0.895-2,2-2h1" stroke-linejoin="round"/><path data-color="color-2" stroke-linecap="round" stroke-miterlimit="10" d="M20,7L20,7 c1.105,0,2-0.895,2-2v0c0-1.105-0.895-2-2-2h0c-1.105,0-2,0.895-2,2v0C18,6.105,18.895,7,20,7z" stroke-linejoin="round"/><path data-color="color-2" stroke-linecap="round" stroke-miterlimit="10" d="M18,21h3v-4 l2,0v-5c0-1.105-0.895-2-2-2h-1" stroke-linejoin="round"/><path fill="none" stroke="currentColor" stroke-linecap="round" stroke-miterlimit="10" d="M12,7L12,7 c-1.657,0-3-1.343-3-3v0c0-1.657,1.343-3,3-3h0c1.657,0,3,1.343,3,3v0C15,5.657,13.657,7,12,7z" stroke-linejoin="round"/><path fill="none" stroke="currentColor" stroke-linecap="round" stroke-miterlimit="10" d="M15,23H9v-6H7v-5 c0-1.105,0.895-2,2-2h6c1.105,0,2,0.895,2,2v6h-2V23z" stroke-linejoin="round"/></g></symbol><symbol id="nc-icon-lock-outline-24" viewBox="0 0 24 24"><title>lock</title><g><path fill="none" stroke="currentColor" stroke-linecap="round" stroke-miterlimit="10" d="M12,1L12,1 C9.2,1,7,3.2,7,6v3h10V6C17,3.2,14.8,1,12,1z" stroke-linejoin="round"/><rect x="4" y="9" fill="none" stroke="currentColor" stroke-linecap="round" stroke-miterlimit="10" width="16" height="14" stroke-linejoin="round"/><circle data-color="color-2" stroke-linecap="round" stroke-miterlimit="10" cx="12" cy="15" r="2" stroke-linejoin="round"/><line data-color="color-2" stroke-linecap="round" stroke-miterlimit="10" x1="12" y1="17" x2="12" y2="19" stroke-linejoin="round"/></g></symbol><symbol id="nc-icon-lock-open-outline-24" viewBox="0 0 24 24"><title>lock open</title><g><path data-cap="butt" fill="none" stroke="currentColor" stroke-miterlimit="10" d="M16.6,4C15.8,2.2,14,1,12,1h0 C9.2,1,7,3.2,7,6v3" stroke-linejoin="round" stroke-linecap="round"/><circle data-color="color-2" stroke-linecap="round" stroke-miterlimit="10" cx="12" cy="15" r="2" stroke-linejoin="round"/><line data-color="color-2" stroke-linecap="round" stroke-miterlimit="10" x1="12" y1="17" x2="12" y2="19" stroke-linejoin="round"/><rect x="4" y="9" fill="none" stroke="currentColor" stroke-linecap="round" stroke-miterlimit="10" width="16" height="14" stroke-linejoin="round"/></g></symbol><symbol id="nc-icon-link-72-outline-24" viewBox="0 0 24 24"><title>link 72</title><g><path data-color="color-2" stroke-linecap="round" stroke-miterlimit="10" d="M13.4,10.6 L13.4,10.6c2,2,2,5.1,0,7.1l-2.8,2.8c-2,2-5.1,2-7.1,0l0,0c-2-2-2-5.1,0-7.1L6,11" stroke-linejoin="round"/><path fill="none" stroke="currentColor" stroke-linecap="round" stroke-miterlimit="10" d="M10.6,13.4L10.6,13.4 c-2-2-2-5.1,0-7.1l2.8-2.8c2-2,5.1-2,7.1,0l0,0c2,2,2,5.1,0,7.1L18,13" stroke-linejoin="round"/></g></symbol><symbol id="nc-icon-like-2-outline-24" viewBox="0 0 24 24"><title>like 2</title><g><path data-cap="butt" fill="none" stroke="currentColor" stroke-miterlimit="10" d="M6,20l2.3,1.1C9.4,21.7,10.7,22,12,22 h7c1.1,0,2-0.9,2-2l1-8c0-1.1-0.9-2-2-2h-5V7c0-1.7-1-4-2.5-4.9C11.8,1.8,11,2.2,11,3v4l-5,6" stroke-linejoin="round" stroke-linecap="round"/><rect data-color="color-2" x="2" y="11" stroke-linecap="round" stroke-miterlimit="10" width="4" height="11" stroke-linejoin="round"/></g></symbol><symbol id="nc-icon-layers-3-outline-24" viewBox="0 0 24 24"><title>layers 3</title><g><polygon fill="none" stroke="currentColor" stroke-linecap="round" stroke-miterlimit="10" points="2,7 12,1 22,7 12,13 " stroke-linejoin="round"/><polyline data-color="color-2" stroke-linecap="round" stroke-miterlimit="10" points=" 22,12 12,18 2,12 " stroke-linejoin="round"/><polyline data-color="color-2" stroke-linecap="round" stroke-miterlimit="10" points=" 22,17 12,23 2,17 " stroke-linejoin="round"/></g></symbol><symbol id="nc-icon-key-25-outline-24" viewBox="0 0 24 24"><title>key 25</title><g><line data-color="color-2" stroke-linecap="round" stroke-miterlimit="10" x1="11.243" y1="12.757" x2="22" y2="2" stroke-linejoin="round"/><polyline data-cap="butt" data-color="color-2" stroke-miterlimit="10" points="19,5 22,8 19,11 16,8 " stroke-linejoin="round" stroke-linecap="round"/><ellipse transform="matrix(0.7071 -0.7071 0.7071 0.7071 -9.9706 9.9289)" fill="none" stroke="currentColor" stroke-linecap="round" stroke-miterlimit="10" cx="7" cy="17" rx="6" ry="6" stroke-linejoin="round"/></g></symbol><symbol id="nc-icon-image-outline-24" viewBox="0 0 24 24"><title>image</title><g><polyline data-cap="butt" data-color="color-2" stroke-miterlimit="10" points="1,17 6,13 11,17 17,10 23,15 " stroke-linejoin="round" stroke-linecap="round"/><rect x="1" y="2" fill="none" stroke="currentColor" stroke-linecap="round" stroke-miterlimit="10" width="22" height="20" stroke-linejoin="round"/><circle data-color="color-2" stroke-linecap="round" stroke-miterlimit="10" cx="10" cy="8" r="2" stroke-linejoin="round"/></g></symbol><symbol id="nc-icon-home-52-outline-24" viewBox="0 0 24 24"><title>home 52</title><g><polyline data-cap="butt" fill="none" stroke="currentColor" stroke-miterlimit="10" points="4,9.273 4,22 10,22 10,17 14,17 14,22 20,22 20,9.273 " stroke-linejoin="round" stroke-linecap="round"/><rect data-color="color-2" x="10" y="9" stroke-linecap="round" stroke-miterlimit="10" width="4" height="4" stroke-linejoin="round"/><polyline data-cap="butt" data-color="color-2" stroke-miterlimit="10" points="5,8.364 5,3 7,3 7,6.545 " stroke-linejoin="round" stroke-linecap="round"/><polyline data-cap="butt" data-color="color-2" stroke-miterlimit="10" points="1,12 12,2 23,12 " stroke-linejoin="round" stroke-linecap="round"/></g></symbol><symbol id="nc-icon-heart-2-outline-24" viewBox="0 0 24 24"><title>heart 2</title><g><path fill="none" stroke="currentColor" stroke-linecap="round" stroke-miterlimit="10" d="M21.243,3.757 c-2.343-2.343-6.142-2.343-8.485,0c-0.289,0.289-0.54,0.6-0.757,0.927c-0.217-0.327-0.469-0.639-0.757-0.927 c-2.343-2.343-6.142-2.343-8.485,0c-2.343,2.343-2.343,6.142,0,8.485L12,21.485l9.243-9.243C23.586,9.899,23.586,6.1,21.243,3.757z" stroke-linejoin="round"/></g></symbol><symbol id="nc-icon-handout-outline-24" viewBox="0 0 24 24"><title>handout</title><g><circle data-color="color-2" stroke-linecap="round" stroke-miterlimit="10" cx="17.5" cy="9.5" r="2.5" stroke-linejoin="round"/><circle data-color="color-2" stroke-linecap="round" stroke-miterlimit="10" cx="9.5" cy="3.5" r="2.5" stroke-linejoin="round"/><path data-cap="butt" fill="none" stroke="currentColor" stroke-miterlimit="10" d="M13.476,16H19c2.817,0,3,2,3,2 l-11.765,4.525c-0.787,0.303-1.665,0.26-2.419-0.117L1,19v-7h1c1.105,0,3.906,0.438,5,2l0,0h3c2.209,0,4,1.791,4,4l0,0H7" stroke-linejoin="round" stroke-linecap="round"/></g></symbol><symbol id="nc-icon-grid-45-outline-24" viewBox="0 0 24 24"><title>grid 45</title><g><rect x="1" y="1" fill="none" stroke="currentColor" stroke-linecap="round" stroke-miterlimit="10" width="9" height="9" stroke-linejoin="round"/><rect data-color="color-2" x="14" y="1" stroke-linecap="round" stroke-miterlimit="10" width="9" height="9" stroke-linejoin="round"/><rect data-color="color-2" x="1" y="14" stroke-linecap="round" stroke-miterlimit="10" width="9" height="9" stroke-linejoin="round"/><rect x="14" y="14" fill="none" stroke="currentColor" stroke-linecap="round" stroke-miterlimit="10" width="9" height="9" stroke-linejoin="round"/></g></symbol><symbol id="nc-icon-gift-2-outline-24" viewBox="0 0 24 24"><title>gift 2</title><g><polyline fill="none" stroke="currentColor" stroke-linecap="round" stroke-miterlimit="10" points="21,9 21,23 3,23 3,9 " stroke-linejoin="round"/><rect x="1" y="5" fill="none" stroke="currentColor" stroke-linecap="round" stroke-miterlimit="10" width="22" height="4" stroke-linejoin="round"/><path data-color="color-2" stroke-linecap="round" stroke-miterlimit="10" d="M6,3 c0-1.105,0.895-2,2-2c2.958,0,4,4,4,4S9.105,5,8,5S6,4.105,6,3z" stroke-linejoin="round"/><path data-color="color-2" stroke-linecap="round" stroke-miterlimit="10" d="M18,3 c0-1.105-0.895-2-2-2c-2.958,0-4,4-4,4s2.895,0,4,0S18,4.105,18,3z" stroke-linejoin="round"/><polyline data-color="color-2" stroke-linecap="round" stroke-miterlimit="10" points=" 14,5 14,23 10,23 10,5 " stroke-linejoin="round"/></g></symbol><symbol id="nc-icon-folder-15-outline-24" viewBox="0 0 24 24"><title>folder 15</title><g><polygon fill="none" stroke="currentColor" stroke-linecap="round" stroke-miterlimit="10" points="23,23 1,23 1,1 9,1 12,5 23,5 " transform="translate(0, 0)" stroke-linejoin="round"/></g></symbol><symbol id="nc-icon-flash-21-outline-24" viewBox="0 0 24 24"><title>flash 21</title><g><polygon fill="none" stroke="currentColor" stroke-linecap="round" stroke-miterlimit="10" points="13,3 3,14 12,14 11,21 21,10 12,10 " stroke-linejoin="round"/></g></symbol><symbol id="nc-icon-flag-points-32-outline-24" viewBox="0 0 24 24"><title>flag points 32</title><g><polyline fill="none" stroke="currentColor" stroke-linecap="round" stroke-miterlimit="10" points="3,3 21,3 18,9 21,15 3,15 " stroke-linejoin="round"/><line data-color="color-2" stroke-linecap="round" stroke-miterlimit="10" x1="3" y1="1" x2="3" y2="23" stroke-linejoin="round"/></g></symbol><symbol id="nc-icon-favourite-31-outline-24" viewBox="0 0 24 24"><title>favourite 31</title><g><polygon fill="none" stroke="currentColor" stroke-linecap="round" stroke-miterlimit="10" points="12,2.49 15.09,8.75 22,9.754 17,14.628 18.18,21.51 12,18.262 5.82,21.51 7,14.628 2,9.754 8.91,8.75 " stroke-linejoin="round"/></g></symbol><symbol id="nc-icon-eye-19-outline-24" viewBox="0 0 24 24"><title>eye 19</title><g><path fill="none" stroke="currentColor" stroke-linecap="round" stroke-miterlimit="10" d="M2,12c0,0,4-6,10-6 c6,0,10,6,10,6s-4,6-10,6C6,18,2,12,2,12z" stroke-linejoin="round"/><circle data-color="color-2" stroke-linecap="round" stroke-miterlimit="10" cx="12" cy="10" r="4" stroke-linejoin="round"/></g></symbol><symbol id="nc-icon-email-84-outline-24" viewBox="0 0 24 24"><title>email 84</title><g><polyline data-cap="butt" data-color="color-2" stroke-miterlimit="10" points="1,3 12,13 23,3 " stroke-linejoin="round" stroke-linecap="round"/><rect x="1" y="3" fill="none" stroke="currentColor" stroke-linecap="round" stroke-miterlimit="10" width="22" height="18" stroke-linejoin="round"/></g></symbol><symbol id="nc-icon-edit-78-outline-24" viewBox="0 0 24 24"><title>edit 78</title><g><line fill="none" stroke="currentColor" stroke-linecap="round" stroke-miterlimit="10" x1="22" y1="2" x2="11" y2="13" stroke-linejoin="round"/><path data-color="color-2" stroke-linecap="round" stroke-miterlimit="10" d="M20.5,10 c0.3,0.9,0.5,2,0.5,3c0,5.5-4.5,10-10,10S1,18.5,1,13S5.5,3,11,3c1,0,2,0.2,3,0.5" stroke-linejoin="round"/></g></symbol><symbol id="nc-icon-diamond-outline-24" viewBox="0 0 24 24"><title>diamond</title><g><line data-color="color-2" stroke-linecap="round" stroke-miterlimit="10" x1="7" y1="7" x2="17" y2="7" stroke-linejoin="round"/><polygon fill="none" stroke="currentColor" stroke-linecap="round" stroke-miterlimit="10" points="22,7 12,21 2,7 6,2 18,2 " stroke-linejoin="round"/></g></symbol><symbol id="nc-icon-dashboard-level-outline-24" viewBox="0 0 24 24"><title>dashboard level</title><g><line data-cap="butt" data-color="color-2" stroke-miterlimit="10" x1="1.4" y1="15" x2="22.6" y2="15" stroke-linejoin="round" stroke-linecap="round"/><line data-cap="butt" data-color="color-2" stroke-miterlimit="10" x1="7" y1="6" x2="12" y2="15" stroke-linejoin="round" stroke-linecap="round"/><circle fill="none" stroke="currentColor" stroke-linecap="round" stroke-miterlimit="10" cx="12" cy="12" r="11" stroke-linejoin="round"/></g></symbol><symbol id="nc-icon-compass-05-outline-24" viewBox="0 0 24 24"><title>compass 05</title><g><circle fill="none" stroke="currentColor" stroke-linecap="round" stroke-miterlimit="10" cx="12" cy="12" r="11" stroke-linejoin="round"/><polygon data-color="color-2" stroke-linecap="round" stroke-miterlimit="10" points=" 17,7 14,14 7,17 10,10 " stroke-linejoin="round"/><polygon data-color="color-2" data-stroke="none" points="17,7 14,14 10,10 " stroke-linejoin="round" stroke-linecap="round" fill="currentColor" stroke="none"/></g></symbol><symbol id="nc-icon-cloud-26-outline-24" viewBox="0 0 24 24"><title>cloud 26</title><g><path fill="none" stroke="currentColor" stroke-linecap="round" stroke-miterlimit="10" d="M15,4c-3.8,0-7,2.6-7.8,6.2 C6.8,10.1,6.4,10,6,10c-2.8,0-5,2.2-5,5s2.2,5,5,5h9c4.4,0,8-3.6,8-8S19.4,4,15,4z" stroke-linejoin="round"/></g></symbol><symbol id="nc-icon-check-circle-07-outline-24" viewBox="0 0 24 24"><title>check circle 07</title><g><path data-cap="butt" fill="none" stroke="currentColor" stroke-miterlimit="10" d="M20.7,9.4c0.2,0.8,0.3,1.7,0.3,2.6 c0,5.5-4.5,10-10,10S1,17.5,1,12S5.5,2,11,2c1.9,0,3.7,0.5,5.3,1.5" stroke-linejoin="round" stroke-linecap="round"/><polyline data-color="color-2" stroke-linecap="round" stroke-miterlimit="10" points=" 7,10 11,14 22,3 " stroke-linejoin="round"/></g></symbol><symbol id="nc-icon-chat-46-outline-24" viewBox="0 0 24 24"><title>chat 46</title><g><polyline data-color="color-2" stroke-linecap="round" stroke-miterlimit="10" points=" 23,5 23,18 19,18 19,22 13,18 12,18 " stroke-linejoin="round"/><polygon fill="none" stroke="currentColor" stroke-miterlimit="10" points="19,1 1,1 1,14 5,14 5,19 12,14 19,14 " stroke-linejoin="round" stroke-linecap="round"/></g></symbol><symbol id="nc-icon-cart-simple-outline-24" viewBox="0 0 24 24"><title>cart simple</title><g><circle data-color="color-2" stroke-linecap="round" stroke-miterlimit="10" cx="7" cy="21" r="2" stroke-linejoin="round"/><circle data-color="color-2" stroke-linecap="round" stroke-miterlimit="10" cx="19" cy="21" r="2" stroke-linejoin="round"/><polyline data-cap="butt" fill="none" stroke="currentColor" stroke-miterlimit="10" points="4.667,6 22,6 20,16 6,16 4,1 1,1 " stroke-linejoin="round" stroke-linecap="round"/></g></symbol><symbol id="nc-icon-camera-20-outline-24" viewBox="0 0 24 24"><title>camera 20</title><g><line fill="none" stroke="currentColor" stroke-linecap="round" stroke-miterlimit="10" x1="3" y1="2" x2="6" y2="2" stroke-linejoin="round"/><polygon fill="none" stroke="currentColor" stroke-linecap="round" stroke-miterlimit="10" points="1,22 23,22 23,5 19,5 17,2 11,2 9,5 1,5 " stroke-linejoin="round"/><circle data-color="color-2" stroke-linecap="round" stroke-miterlimit="10" cx="14" cy="13" r="5" stroke-linejoin="round"/><circle data-color="color-2" data-stroke="none" cx="5" cy="9" r="1" stroke-linejoin="round" stroke-linecap="round" fill="currentColor" stroke="none"/></g></symbol><symbol id="nc-icon-calendar-60-outline-24" viewBox="0 0 24 24"><title>calendar 60</title><g><polyline fill="none" stroke="currentColor" stroke-linecap="round" stroke-miterlimit="10" points="19,3 23,3 23,23 1,23 1,3 5,3 " stroke-linejoin="round"/><line fill="none" stroke="currentColor" stroke-linecap="round" stroke-miterlimit="10" x1="7" y1="3" x2="17" y2="3" stroke-linejoin="round"/><rect x="5" y="1" fill="none" stroke="currentColor" stroke-linecap="round" stroke-miterlimit="10" width="2" height="4" stroke-linejoin="round"/><rect x="17" y="1" fill="none" stroke="currentColor" stroke-linecap="round" stroke-miterlimit="10" width="2" height="4" stroke-linejoin="round"/><line fill="none" stroke="currentColor" stroke-linecap="round" stroke-miterlimit="10" x1="1" y1="9" x2="23" y2="9" stroke-linejoin="round"/></g></symbol><symbol id="nc-icon-briefcase-24-outline-24" viewBox="0 0 24 24"><title>briefcase 24</title><g><polyline data-color="color-2" stroke-linecap="round" stroke-miterlimit="10" points=" 8,5 8,1 16,1 16,5 " stroke-linejoin="round"/><polyline fill="none" stroke="currentColor" stroke-linecap="round" stroke-miterlimit="10" points="9,15 1,15 1,5 23,5 23,15 15,15 " stroke-linejoin="round"/><polyline fill="none" stroke="currentColor" stroke-linecap="round" stroke-miterlimit="10" points="22,18 22,23 2,23 2,18 " stroke-linejoin="round"/><rect data-color="color-2" x="9" y="13" stroke-linecap="round" stroke-miterlimit="10" width="6" height="4" stroke-linejoin="round"/></g></symbol><symbol id="nc-icon-bookmark-2-outline-24" viewBox="0 0 24 24"><title>bookmark 2</title><g><polygon fill="none" stroke="currentColor" stroke-linecap="round" stroke-miterlimit="10" points="20,22 12,17 4,22 4,1 20,1 " transform="translate(0, 0)" stroke-linejoin="round"/></g></symbol><symbol id="nc-icon-bell-53-outline-24" viewBox="0 0 24 24"><title>bell 53</title><g><path data-color="color-2" stroke-linecap="round" stroke-miterlimit="10" d="M15,20 c0,1.7-1.3,3-3,3s-3-1.3-3-3" stroke-linejoin="round"/><path fill="none" stroke="currentColor" stroke-linecap="round" stroke-miterlimit="10" d="M19,13c0-2.5,0-5,0-5 c0-3.9-3.1-7-7-7S5,4.1,5,8c0,0,0,2.5,0,5c0,4-2,7-2,7h18C21,20,19,17,19,13z" stroke-linejoin="round"/></g></symbol><symbol id="nc-icon-bear-2-outline-24" viewBox="0 0 24 24"><title>bear 2</title><g><circle fill="none" stroke="currentColor" stroke-linecap="round" stroke-miterlimit="10" cx="12" cy="13" r="10" stroke-linejoin="round"/><path data-cap="butt" fill="none" stroke="currentColor" stroke-miterlimit="10" d="M8.722,3.561C8.143,2.065,6.7,1,5,1 C2.791,1,1,2.791,1,5c0,1.511,0.847,2.81,2.083,3.49" stroke-linejoin="round" stroke-linecap="round"/><path data-cap="butt" fill="none" stroke="currentColor" stroke-miterlimit="10" d="M15.278,3.561 C15.857,2.065,17.3,1,19,1c2.209,0,4,1.791,4,4c0,1.511-0.847,2.81-2.083,3.49" stroke-linejoin="round" stroke-linecap="round"/><polygon data-color="color-2" stroke-linecap="round" stroke-miterlimit="10" points=" 12,16 13,14 11,14 " stroke-linejoin="round"/><line data-color="color-2" stroke-linecap="round" stroke-miterlimit="10" x1="12" y1="16" x2="12" y2="18" stroke-linejoin="round"/><line data-color="color-2" stroke-linecap="round" stroke-miterlimit="10" x1="10" y1="18" x2="14" y2="18" stroke-linejoin="round"/><circle data-color="color-2" data-stroke="none" cx="9" cy="10" r="1" stroke-linejoin="round" stroke-linecap="round" fill="currentColor" stroke="none"/><circle data-color="color-2" data-stroke="none" cx="15" cy="10" r="1" stroke-linejoin="round" stroke-linecap="round" fill="currentColor" stroke="none"/></g></symbol><symbol id="nc-icon-barcode-qr-outline-24" viewBox="0 0 24 24"><title>barcode qr</title><g><polygon fill="none" stroke="currentColor" stroke-linecap="round" stroke-miterlimit="10" points="10,10 1,10 1,1 10,1 10,1 " stroke-linejoin="round"/><polygon fill="none" stroke="currentColor" stroke-linecap="round" stroke-miterlimit="10" points="23,10 14,10 14,1 14,1 23,1 " stroke-linejoin="round"/><polygon fill="none" stroke="currentColor" stroke-linecap="round" stroke-miterlimit="10" points="10,23 1,23 1,14 10,14 10,14 " stroke-linejoin="round"/><polyline fill="none" stroke="currentColor" stroke-linecap="round" stroke-miterlimit="10" points="23,19 23,14 19,14 19,17 15,17 15,14 " stroke-linejoin="round"/><polyline fill="none" stroke="currentColor" stroke-linecap="round" stroke-miterlimit="10" points="23,23 15,23 15,21 " stroke-linejoin="round"/><polygon data-color="color-2" stroke-linecap="round" stroke-miterlimit="10" points=" 6,6 5,6 5,5 6,5 6,6 " stroke-linejoin="round"/><polygon data-color="color-2" stroke-linecap="round" stroke-miterlimit="10" points=" 19,6 18,6 18,6 18,5 19,5 " stroke-linejoin="round"/><polygon data-color="color-2" stroke-linecap="round" stroke-miterlimit="10" points=" 6,19 5,19 5,18 6,18 6,19 " stroke-linejoin="round"/></g></symbol><symbol id="nc-icon-bag-09-outline-24" viewBox="0 0 24 24"><title>bag 09</title><g><polygon fill="none" stroke="currentColor" stroke-linecap="round" stroke-miterlimit="10" points="22,23 2,23 4,7 20,7 " stroke-linejoin="round"/><path data-color="color-2" stroke-linecap="round" stroke-miterlimit="10" d="M8,10V5 c0-2.2,1.8-4,4-4h0c2.2,0,4,1.8,4,4v5" stroke-linejoin="round"/></g></symbol><symbol id="nc-icon-badge-13-outline-24" viewBox="0 0 24 24"><title>badge 13</title><g><line data-color="color-2" stroke-linecap="round" stroke-miterlimit="10" x1="15" y1="11" x2="19" y2="11" stroke-linejoin="round"/><line data-color="color-2" stroke-linecap="round" stroke-miterlimit="10" x1="15" y1="15" x2="19" y2="15" stroke-linejoin="round"/><path data-color="color-2" data-stroke="none" d="M4,17c0-1.657,1.343-3,3-3h2c1.657,0,3,1.343,3,3H4z" stroke-linejoin="round" stroke-linecap="round" fill="currentColor" stroke="none"/><path fill="none" stroke="currentColor" stroke-linecap="round" stroke-miterlimit="10" d="M19,3c0,1.105-0.895,2-2,2 s-2-0.895-2-2H9c0,1.105-0.895,2-2,2S5,4.105,5,3H1v18h22V3H19z" stroke-linejoin="round"/><circle data-color="color-2" data-stroke="none" cx="8" cy="11" r="2" stroke-linejoin="round" stroke-linecap="round" fill="currentColor" stroke="none"/></g></symbol><symbol id="nc-icon-award-48-outline-24" viewBox="0 0 24 24"><title>award 48</title><g><polyline data-cap="butt" data-color="color-2" stroke-miterlimit="10" points="17.873,11.81 22,20 18,19 16,22 12.725,14.963 " stroke-linejoin="round" stroke-linecap="round"/><polyline data-cap="butt" data-color="color-2" stroke-miterlimit="10" points="6.127,11.81 2,20 6,19 8,22 11.275,14.963 " stroke-linejoin="round" stroke-linecap="round"/><circle fill="none" stroke="currentColor" stroke-linecap="round" stroke-miterlimit="10" cx="12" cy="8" r="7" stroke-linejoin="round"/><circle fill="none" stroke="currentColor" stroke-linecap="round" stroke-miterlimit="10" cx="12" cy="8" r="2" stroke-linejoin="round"/></g></symbol><symbol id="nc-icon-archive-paper-outline-24" viewBox="0 0 24 24"><title>archive paper</title><g><polyline fill="none" stroke="currentColor" stroke-linecap="round" stroke-miterlimit="10" points="19,5 23,5 23,23 1,23 1,5 5,5 " stroke-linejoin="round"/><polyline fill="none" stroke="currentColor" stroke-linecap="round" stroke-miterlimit="10" points="1,15 8,15 8,18 16,18 16,15 23,15 " stroke-linejoin="round"/><polyline fill="none" stroke="currentColor" stroke-linecap="round" stroke-miterlimit="10" points="5,15 5,1 19,1 19,15 " stroke-linejoin="round"/><line data-color="color-2" stroke-linecap="round" stroke-miterlimit="10" x1="9" y1="6" x2="15" y2="6" stroke-linejoin="round"/><line data-color="color-2" stroke-linecap="round" stroke-miterlimit="10" x1="9" y1="10" x2="15" y2="10" stroke-linejoin="round"/></g></symbol><symbol id="nc-icon-archive-2-outline-24" viewBox="0 0 24 24"><title>archive 2</title><g><rect x="3" y="9" fill="none" stroke="currentColor" stroke-linecap="round" stroke-miterlimit="10" width="18" height="14" stroke-linejoin="round"/><line data-color="color-2" stroke-linecap="round" stroke-miterlimit="10" x1="5" y1="5" x2="19" y2="5" stroke-linejoin="round"/><line data-color="color-2" stroke-linecap="round" stroke-miterlimit="10" x1="8" y1="1" x2="16" y2="1" stroke-linejoin="round"/><polyline data-color="color-2" stroke-linecap="round" stroke-miterlimit="10" points=" 16,14 16,16 8,16 8,14 " stroke-linejoin="round"/></g></symbol></svg>